<mxfile host="app.diagrams.net" modified="2021-08-10T08:29:51.286Z" agent="5.0 (Windows NT 10.0; Win64; x64) AppleWebKit/537.36 (KHTML, like Gecko) Chrome/92.0.4515.131 Safari/537.36" etag="vPQYReJkovHgrnju6TJh" version="14.9.4" type="github">
  <diagram id="R2lEEEUBdFMjLlhIrx00" name="Page-1">
    <mxGraphModel dx="1422" dy="762" grid="1" gridSize="10" guides="1" tooltips="1" connect="1" arrows="1" fold="1" page="1" pageScale="1" pageWidth="850" pageHeight="1100" math="0" shadow="0" extFonts="Permanent Marker^https://fonts.googleapis.com/css?family=Permanent+Marker">
      <root>
        <mxCell id="0" />
        <mxCell id="1" parent="0" />
        <mxCell id="akZH2UkUU4lrVJMahKS4-1" value="游戏客户端" style="shape=process;whiteSpace=wrap;html=1;backgroundOutline=1;" vertex="1" parent="1">
          <mxGeometry x="320" y="10" width="120" height="60" as="geometry" />
        </mxCell>
        <mxCell id="akZH2UkUU4lrVJMahKS4-2" value="instance-1" style="shape=process;whiteSpace=wrap;html=1;backgroundOutline=1;" vertex="1" parent="1">
          <mxGeometry x="99" y="210" width="120" height="60" as="geometry" />
        </mxCell>
        <mxCell id="akZH2UkUU4lrVJMahKS4-6" style="edgeStyle=orthogonalEdgeStyle;rounded=0;orthogonalLoop=1;jettySize=auto;html=1;exitX=0.5;exitY=1;exitDx=0;exitDy=0;entryX=0.5;entryY=0;entryDx=0;entryDy=0;" edge="1" parent="1" source="akZH2UkUU4lrVJMahKS4-4" target="akZH2UkUU4lrVJMahKS4-2">
          <mxGeometry relative="1" as="geometry" />
        </mxCell>
        <mxCell id="akZH2UkUU4lrVJMahKS4-7" style="edgeStyle=orthogonalEdgeStyle;rounded=0;orthogonalLoop=1;jettySize=auto;html=1;exitX=0.5;exitY=1;exitDx=0;exitDy=0;" edge="1" parent="1" source="akZH2UkUU4lrVJMahKS4-4" target="akZH2UkUU4lrVJMahKS4-5">
          <mxGeometry relative="1" as="geometry" />
        </mxCell>
        <mxCell id="akZH2UkUU4lrVJMahKS4-4" value="gate-SLB" style="rounded=1;whiteSpace=wrap;html=1;" vertex="1" parent="1">
          <mxGeometry x="170" y="120" width="120" height="60" as="geometry" />
        </mxCell>
        <mxCell id="akZH2UkUU4lrVJMahKS4-5" value="instance-N" style="shape=process;whiteSpace=wrap;html=1;backgroundOutline=1;" vertex="1" parent="1">
          <mxGeometry x="229" y="210" width="120" height="60" as="geometry" />
        </mxCell>
      </root>
    </mxGraphModel>
  </diagram>
</mxfile>
